<!DOCTYPE svg PUBLIC "-//W3C//DTD SVG 1.1//EN" "http://www.w3.org/Graphics/SVG/1.1/DTD/svg11.dtd">
<!-- Uploaded to: SVG Repo, www.svgrepo.com, Transformed by: SVG Repo Mixer Tools -->
<svg fill="#4fb4e4" version="1.1" id="Capa_1" xmlns="http://www.w3.org/2000/svg" xmlns:xlink="http://www.w3.org/1999/xlink" width="800px" height="800px" viewBox="-3.16 -3.16 37.90 37.90" xml:space="preserve" transform="rotate(0)">
<g id="SVGRepo_bgCarrier" stroke-width="0" transform="translate(0,0), scale(1)">
<rect x="-3.16" y="-3.16" width="37.90" height="37.90" rx="18.95" fill="#1d1b1b" strokewidth="0"/>
</g>
<g id="SVGRepo_tracerCarrier" stroke-linecap="round" stroke-linejoin="round" stroke="#CCCCCC" stroke-width="0.31576000000000004"/>
<g id="SVGRepo_iconCarrier"> <g> <path d="M25.208,0.818V0H16.64c-0.088,0.001-8.638,0.358-8.638,8.197c0,2.803,0.958,4.842,2.847,6.059 c1.428,0.922,3.053,1.107,3.998,1.127c0.028,0.543,0.15,1.32,0.552,2.162c-3.053,0.178-9.032,1.27-9.032,7.025 c0,6.666,7.185,7.005,8.625,7.005l0.171-0.003l0.265,0.004c0.901,0,3.231-0.114,5.404-1.17c2.905-1.411,4.379-3.855,4.379-7.268 c0-3.326-2.271-5.326-3.781-6.651c-0.664-0.582-1.49-1.306-1.49-1.688c0-0.398,0.48-0.83,1.094-1.381 c1.082-0.964,2.52-2.627,2.52-5.902c0-1.828-0.127-3.577-1.385-4.88C23.388,2.471,25.208,2.216,25.208,0.818z M16.919,12.031 c-1.559,0.421-3.29-1.254-3.897-3.566c-0.318-1.212-0.298-2.246,0.063-3.255c0.323-0.904,0.879-1.511,1.567-1.704 c0.156-0.045,0.319-0.066,0.486-0.066c1.644,0,2.819,0.548,3.595,3.277c0.396,1.39,0.253,2.898-0.382,4.034 C17.978,11.421,17.468,11.876,16.919,12.031z M11.132,24.491c-0.061-0.964,0.375-1.917,1.227-2.688 c0.906-0.82,2.162-1.33,3.527-1.429c0.165-0.011,0.329-0.019,0.494-0.019c2.463,0,4.272,1.396,4.396,3.392 c0.127,2.038-1.652,3.543-4.428,3.745C13.43,27.709,11.254,26.438,11.132,24.491z"/> </g> </g>
</svg>